<svg xmlns="http://www.w3.org/2000/svg" width="174" height="58" viewBox="0 0 174 58">
    <defs>
        <style>
            .cls-1{fill:#b28b72}
        </style>
    </defs>
    <g id="Logo_quarto_de_milha" transform="translate(.024)">
        <path id="Caminho_123" d="M64.427 30.061l1.79-.885 1.359 1.473-.283-1.989 1.809-.845-1.964-.341-.238-1.994-.933 1.775-1.958-.386 1.389 1.44z" class="cls-1" transform="translate(-46.097 -18.302)"/>
        <path id="Caminho_125" d="M45.149 30.8l1.224-1.4 1.689.772-.95-1.6 1.249-1.38-1.809.414-.916-1.623-.165 1.859-1.821.375 1.706.732z" class="cls-1" transform="translate(-31.44 -18.661)"/>
        <path id="Caminho_126" d="M85.787 37.584l-.815-1.676-1.832.3 1.333-1.3-.849-1.659 1.639.873 1.305-1.322-.322 1.837 1.661.842-1.84.256z" class="cls-1" transform="translate(-59.869 -23.461)"/>
        <path id="Caminho_127" d="M112.036 238.115a2.185 2.185 0 0 1-1.053-1.9 25.759 25.759 0 0 1-.417-3.133 6.463 6.463 0 0 0-.919-2.1l-1.426-3.043c-.068-.143-.51-.5-1.224-.18s-1.529.073-1.734.18a5.534 5.534 0 0 1-1.294.4c-.339.037-.305.471-.543.617s-.919-.256-.919-.256-.339-.178-.406-.324-.067-.349-.2-.761c-.2-.614.171-.673.171-.673s.577-.532.782-.716a4.72 4.72 0 0 0 1.087-1.58c.034-.617.577-.978.818-1.268.118-.146.387-.282.473-.51a.85.85 0 0 0 0-.5c-.373-.282 0-1.485 0-1.485h.137a1.021 1.021 0 0 0 .134.507c.137.183.409.8.58.617s.476.034.476.034c-.28-.4.134-1.375.134-1.375h.137v.1a3.023 3.023 0 0 0 .137.69c.067.18.611 1.085.611 1.085a5.415 5.415 0 0 1 .751.479c.2.175.375.121.625.065.513-.107 4.283 2.1 6.017 4.119a2.679 2.679 0 0 0 2.179 1.085 16.145 16.145 0 0 1 2.482 1.014 11.6 11.6 0 0 0 4.249-.614c2.039-.761 3.641-1.409 6.017-.47a6.921 6.921 0 0 0 .885.282 9.1 9.1 0 0 1 .986.327s1.868-.254 3.059 2.428a12.928 12.928 0 0 1 .986 7.64 2.549 2.549 0 0 0-.1-.724c-.1-.254-.613 1.69-.818 2.028v-.724a10.457 10.457 0 0 0-.611 1.589 6.069 6.069 0 0 0-.137.727 6.565 6.565 0 0 1 .1-1.518c.137-.324-.308.578-.308.431s.034-1.048.034-1.3-.28.144-.238-1.558a18.589 18.589 0 0 0 .036-4.164c-.272-1.194-.171-1.378-.171-1.378a6.368 6.368 0 0 1-.137 1.231 12.534 12.534 0 0 1-.916 3.186c-.577 1.014-1.358 2.031-1.09 2.817a14.556 14.556 0 0 1 .681 1.992 1.036 1.036 0 0 0 .171.58 1.99 1.99 0 0 1 .238 1.485 7.686 7.686 0 0 0-.2 2.389c0 .7.034 2.645.034 2.789s0 .282-.137.363a.623.623 0 0 0-.235.361c-.036.11-.375.183-.375.437s.2.58.2.687-.308.324-.308.324a7.754 7.754 0 0 1-1.6 0 6.489 6.489 0 0 1 .58-.9.414.414 0 0 1 .238-.361c.235-.11.339-.282.339-.687a1.912 1.912 0 0 1 .067-.871 31.408 31.408 0 0 0 .036-3.516l-.1-.144s-.611 2.172-.647 2.572.1.978-.28 1.409a3.1 3.1 0 0 1-.681.617s-.168.254-.034.434.305.437.2.544a.927.927 0 0 1-.339.18 4.274 4.274 0 0 1-1.462.073s.238-.614.305-.758a1.44 1.44 0 0 1 .375-.58c.235-.22.473-.183.473-.51s.171-.434.409-1.048a16.184 16.184 0 0 0 .476-2.9 14.29 14.29 0 0 1-.476-2.355v-1.594a3.221 3.221 0 0 1-.613-1.378 6.263 6.263 0 0 0-1.426-2.352c-.238-.217-.375-.144-.644-.11s-.28-.107-.583-.251-1.56.577-2.1.978a16.665 16.665 0 0 1-5.678 1.5l-.137.014c-2.753.282-1.291.217-1.429.217a16.76 16.76 0 0 1 .375 1.992c.1.944.305 1.848.305 2.392a7.831 7.831 0 0 0 .067 1.665c.1.18.482 1.885.482 1.885s.538.544.4.761-.4.254-.4.617-.132.978 0 1.085.174.217 0 .254a1.348 1.348 0 0 0-.412.217s-.308.4-1.325.18a.923.923 0 0 1 .28-.577 1.3 1.3 0 0 1 .473-.4c.2-.11.1-.282.238-.654s.2-.58.2-.58a.9.9 0 0 1-.28-.58 16.5 16.5 0 0 0-.611-2.172 8.138 8.138 0 0 1-.748-1.738 27.981 27.981 0 0 0-.922-2.9c-.2-.47-.235-.282-.235.07s-.4 1.487-.182 2.1a3.486 3.486 0 0 1 0 2.062 2.562 2.562 0 0 0-.193 1.271 11.179 11.179 0 0 0 .193 1.775c.078.254.261.47 0 .687a4.057 4.057 0 0 0-.465.47 2.6 2.6 0 0 0-.238.845c0 .1.305.282.2.361a4.129 4.129 0 0 0-.406.471 8.2 8.2 0 0 1-1.6-.037v-.144a5.62 5.62 0 0 1 .84-1.051c.28-.183.218-.361.356-.578a2.893 2.893 0 0 0 .3-.907 3.277 3.277 0 0 1 .036-.614c.034-.11-.1-2.028-.1-2.028a6.8 6.8 0 0 1-.342-1.955 3.242 3.242 0 0 0-.252-1.921 5 5 0 0 1-.794-3.378z" class="cls-1" transform="translate(-101.86 -212.107)"/>
        <path id="Caminho_128" d="M214.172 236.94a15.568 15.568 0 0 1 4.263 11.435A17.4 17.4 0 0 1 213 261.052l-.025.025c10.428-4.9 19.764-15.1 19.764-15.1-6.164-.811-13.259-4.677-18.567-9.037z" class="cls-1" transform="translate(-181.925 -223.578)"/>
        <path id="Caminho_129" d="M320.851 190.3c.541 4.586 1.238 10.122-1.4 18.3l4.949-13.64c1.011-2.891-2.387-4.449-3.549-4.66z" class="cls-1" transform="translate(-258.627 -190.3)"/>
        <path id="Caminho_130" d="M182.679 204.264c-8.05 6.11-31.812-2.727-41.769-1.972-9.207.7-12.91 6.325-12.91 6.325a.262.262 0 0 1 .034-.025 18.312 18.312 0 0 1 11.117-3.741c4.737 0 8.557 1.71 12.325 4.741a28.411 28.411 0 0 0 4.871 3.355c13.07 7.925 18.638 6.919 18.638 6.919A57.761 57.761 0 0 1 152 237.011c12.456 2.1 21.19-1.062 21.19-1.062l8.437-18.771.022-.045c1.067-4.178 1.602-9.885 1.03-12.869z" class="cls-1" transform="translate(-120.695 -198.881)"/>
        <path id="Caminho_133" d="M432.817 209.663c0-3.451 0-4.076-.05-4.789s-.182-1.127-.936-1.228a7.538 7.538 0 0 0-.779-.051.222.222 0 0 1-.182-.183c0-.132.1-.183.364-.183 1.039 0 2.415.051 2.622.051s1.639-.051 2.314-.051c.26 0 .389.051.389.183a.222.222 0 0 1-.207.183 2.729 2.729 0 0 0-.56.051c-.6.1-.728.5-.779 1.228s-.053 1.333-.053 4.789v3.1c0 3.214.7 4.547 1.681 5.434a4.439 4.439 0 0 0 3.4 1.2 4.683 4.683 0 0 0 3.532-1.566c1.064-1.282 1.3-3.1 1.3-5.384v-2.795c0-3.451-.025-4.076-.053-4.789s-.154-1.127-.908-1.228a7.523 7.523 0 0 0-.782-.051.194.194 0 0 1-.179-.183c0-.132.1-.183.361-.183 1.014 0 2.339.051 2.471.051s1.246-.051 1.922-.051c.26 0 .364.051.364.183a.2.2 0 0 1-.182.183 2.722 2.722 0 0 0-.56.051c-.625.132-.753.5-.807 1.228s-.025 1.333-.025 4.789v2.378c0 2.4-.311 5.093-2.132 6.663a6.887 6.887 0 0 1-4.778 1.62 7.136 7.136 0 0 1-4.762-1.569c-1.12-1.045-2-2.586-2-5.826z" class="cls-1" transform="translate(-338.905 -199.58)"/>
        <path id="Caminho_134" d="M496.972 202.652c.28-.732.389-.862.56-.862.232 0 .311.313.56.809.415.941 4.078 10.114 5.482 13.483.84 1.972 1.454 2.273 1.961 2.431a3.18 3.18 0 0 0 .91.13c.129 0 .28.051.28.183s-.26.183-.518.183c-.339 0-2.028 0-3.613-.054-.44-.025-.8-.025-.8-.158s.05-.1.154-.155a.418.418 0 0 0 .21-.6l-2.053-5.1c-.053-.1-.078-.13-.207-.13h-5.3a.239.239 0 0 0-.233.18l-1.311 3.555a4.632 4.632 0 0 0-.339 1.49c0 .442.389.6.779.6h.21c.179 0 .233.079.233.183s-.129.183-.339.183c-.543 0-1.79-.079-2.05-.079s-1.378.079-2.314.079c-.28 0-.44-.054-.44-.183a.2.2 0 0 1 .207-.183 5.855 5.855 0 0 0 .675-.054c1.039-.13 1.482-.913 1.921-2.037zm2.546 9.249c.1 0 .1-.054.078-.158l-2.26-6.088c-.129-.338-.26-.338-.389 0l-2.132 6.088c-.025.1 0 .158.078.158z" class="cls-1" transform="translate(-380.633 -198.553)"/>
        <path id="Caminho_135" d="M555.689 209.684c0-3.451 0-4.076-.053-4.789-.05-.758-.182-1.127-.936-1.228a7.535 7.535 0 0 0-.779-.051.222.222 0 0 1-.182-.183c0-.132.1-.183.364-.183 1.039 0 2.571.051 2.7.051.232 0 2.154-.051 2.857-.051a7.45 7.45 0 0 1 4.26.966 3.9 3.9 0 0 1 1.585 3.031c0 1.645-.678 3.24-2.8 5.071 1.871 2.352 3.454 4.364 4.781 5.75a4.309 4.309 0 0 0 3.35 1.62.2.2 0 0 1 .207.183c0 .13-.129.183-.56.183h-1.429a4.6 4.6 0 0 1-2.442-.445c-.986-.521-1.818-1.595-3.118-3.265-.961-1.2-1.961-2.64-2.468-3.243a.346.346 0 0 0-.311-.13l-2.91-.051c-.1 0-.154.051-.154.18v.524c0 2.141 0 3.868.1 4.789.076.654.207 1.073.907 1.178a8.713 8.713 0 0 0 1.014.1.162.162 0 0 1 .136.046.164.164 0 0 1 .046.137c0 .1-.1.183-.364.183-1.247 0-2.7-.079-2.8-.079-.025 0-1.557.079-2.258.079-.235 0-.364-.054-.364-.183a.179.179 0 0 1 .052-.131.176.176 0 0 1 .13-.052 3.348 3.348 0 0 0 .7-.1c.442-.1.493-.524.6-1.178a44.984 44.984 0 0 0 .132-4.806zm1.961 1.879a.325.325 0 0 0 .154.282 7.7 7.7 0 0 0 2.521.341 2.949 2.949 0 0 0 1.714-.392 3.968 3.968 0 0 0 1.378-3.4c0-2.769-1.507-4.364-3.95-4.364a9.767 9.767 0 0 0-1.639.132.282.282 0 0 0-.179.259z" class="cls-1" transform="translate(-427.424 -199.602)"/>
        <path id="Caminho_136" d="M612.074 212.82c0 2.141 0 3.893.1 4.806.076.654.182 1.073.882 1.178a9.035 9.035 0 0 0 1.039.1.162.162 0 0 1 .136.046.164.164 0 0 1 .046.137c0 .1-.1.183-.364.183-1.247 0-2.7-.079-2.832-.079s-1.681.079-2.364.079c-.26 0-.364-.053-.364-.183a.16.16 0 0 1 .182-.158 2.95 2.95 0 0 0 .675-.1c.468-.1.6-.549.678-1.2.1-.913.1-2.665.1-4.806v-9.328l-3.3.051c-1.428.025-1.975.183-2.314.707a3.573 3.573 0 0 0-.364.7c-.05.183-.129.208-.232.208a.171.171 0 0 1-.157-.183c0-.234.468-2.22.493-2.4.053-.13.157-.417.235-.417a8.194 8.194 0 0 0 1.014.259c.65.079 1.532.1 1.793.1h8.613a11.119 11.119 0 0 0 1.636-.1c.339-.051.56-.1.65-.1s.1.132.1.262c0 .679-.078 2.273-.078 2.535 0 .183-.1.282-.207.282s-.157-.079-.182-.392l-.025-.237c-.078-.679-.56-1.175-2.753-1.228l-2.857-.051z" class="cls-1" transform="translate(-463.397 -198.819)"/>
        <path id="Caminho_137" d="M667.417 202.16c5.143 0 9.039 3.161 9.039 8.333a8.872 8.872 0 0 1-9.171 9.068 8.5 8.5 0 0 1-8.935-8.733 8.77 8.77 0 0 1 9.067-8.668zm.518 16.486c2.053 0 6.185-1.1 6.185-7.525 0-5.33-3.224-8.128-6.835-8.128-3.818 0-6.571 2.406-6.571 7.24 0 5.173 3.086 8.413 7.221 8.413z" class="cls-1" transform="translate(-502.791 -198.819)"/>
        <path id="Caminho_138" d="M354.079 291.53c0-2.442 0-2.888-.039-3.381s-.126-.794-.661-.871c-.129-.017-.4-.037-.56-.037a.155.155 0 0 1-.129-.13c0-.09.073-.13.258-.13.737 0 1.784.039 1.877.039.182 0 1.213-.039 2.171-.039 1.616 0 4.58-.146 6.493 1.795a5.552 5.552 0 0 1 1.58 4 6.313 6.313 0 0 1-1.748 4.42 6.477 6.477 0 0 1-4.91 1.811c-.7 0-1.563-.054-2.26-.09s-1.252-.093-1.325-.093-.33.017-.664.017-.717.037-.975.037c-.165 0-.255-.037-.255-.127a.124.124 0 0 1 .126-.13 2.341 2.341 0 0 0 .5-.076c.311-.073.35-.369.423-.831a32.14 32.14 0 0 0 .092-3.4zm1.47 1.69c0 1.665 0 3.124.017 3.423a3.01 3.01 0 0 0 .185 1.127c.2.3.773.628 2.686.628a5.4 5.4 0 0 0 3.787-1.423 5.344 5.344 0 0 0 1.272-3.738 5.454 5.454 0 0 0-1.529-3.944c-1.526-1.538-3.308-1.744-5.241-1.744a4.421 4.421 0 0 0-.975.11.282.282 0 0 0-.2.315z" class="cls-1" transform="translate(-282.578 -259.405)"/>
        <path id="Caminho_139" d="M404.629 291.206c0-2.442 0-2.888-.036-3.381s-.129-.794-.664-.871a5.614 5.614 0 0 0-.56-.037.157.157 0 0 1-.129-.13c0-.09.076-.13.258-.13.737 0 1.784.039 1.877.039s3.5.017 3.863 0c.314-.02.608-.076.737-.093a.932.932 0 0 1 .221-.076c.053 0 .073.076.073.149a5.317 5.317 0 0 0-.129.738c-.02.149-.056.845-.093 1.037-.02.076-.073.166-.148.166s-.129-.073-.129-.2a1.75 1.75 0 0 0-.09-.563c-.112-.259-.28-.369-1.16-.482-.28-.037-2.151-.053-2.336-.053-.073 0-.092.053-.092.166v4.276c0 .11 0 .166.092.166.2 0 2.336 0 2.7-.037s.628-.056.793-.223c.109-.113.182-.2.238-.2s.092.037.092.13a8.251 8.251 0 0 0-.129.868c-.036.316-.073.907-.073 1.017s-.039.3-.148.3-.109-.054-.109-.146a1.365 1.365 0 0 0-.076-.518c-.053-.223-.2-.406-.826-.482-.442-.053-2.171-.073-2.445-.073a.1.1 0 0 0-.083.027.1.1 0 0 0-.029.083v1.321c0 .535-.017 2.366 0 2.682.036 1.054.333 1.256 1.933 1.256a5.37 5.37 0 0 0 1.619-.166 1.2 1.2 0 0 0 .734-1.09c.036-.186.076-.242.165-.242s.112.13.112.242a13.033 13.033 0 0 1-.221 1.516c-.109.408-.28.408-.9.408-1.213 0-2.151-.039-2.8-.056s-1.1-.037-1.345-.037c-.036 0-.35 0-.7.017s-.681.037-.938.037c-.165 0-.258-.037-.258-.127a.124.124 0 0 1 .036-.093.123.123 0 0 1 .093-.036 4.3 4.3 0 0 0 .5-.076c.314-.054.35-.369.423-.831a32.113 32.113 0 0 0 .09-3.4z" class="cls-1" transform="translate(-318.99 -259.083)"/>
        <path id="Caminho_140" d="M479.458 281.956c.09.814.249 2.079 1.216 2.395a4.785 4.785 0 0 0 1.459.206c.112 0 .179.023.179.113 0 .135-.2.2-.471.2-.5 0-2.921-.068-3.753-.135-.518-.045-.63-.113-.63-.228s.048-.135.157-.158.137-.406.092-.811l-1.078-11.663h-.07l-5.5 11.753c-.471.994-.541 1.2-.742 1.2-.157 0-.28-.225-.695-1.04-.585-1.107-2.521-5.017-2.63-5.243-.2-.409-2.72-5.832-2.966-6.443h-.09l-.9 10.488c-.022.361-.022.766-.022 1.152a.726.726 0 0 0 .585.7 4.1 4.1 0 0 0 .84.113c.09 0 .179.045.179.113 0 .158-.134.2-.406.2-.84 0-1.91-.068-2.09-.068s-1.28.068-1.888.068c-.224 0-.381-.045-.381-.2 0-.068.112-.113.224-.113a2.885 2.885 0 0 0 .675-.068c.742-.138.81-1.017.9-1.876l1.616-14.737c.022-.248.112-.406.249-.406s.224.09.336.338l6.877 14.215 6.6-14.193c.09-.2.179-.361.339-.361s.224.18.28.609z" class="cls-1" transform="translate(-359.79 -245.423)"/>
        <path id="Caminho_141" d="M548.221 286.629c0 1.854 0 3.381.09 4.158.07.563.134.927.72 1.017a8.083 8.083 0 0 0 .9.093.151.151 0 0 1 .113.044.152.152 0 0 1 .044.113c0 .09-.089.158-.314.158-1.1 0-2.384-.068-2.473-.068s-1.347.068-1.961.068c-.2 0-.314-.045-.314-.158a.153.153 0 0 1 .044-.113.15.15 0 0 1 .112-.044 2.838 2.838 0 0 0 .608-.093c.381-.09.448-.451.515-1.017.092-.789.112-2.3.112-4.158v-3.381c0-2.983 0-3.524-.045-4.136-.045-.656-.2-.949-.627-1.04a3.546 3.546 0 0 0-.608-.068.169.169 0 0 1-.157-.158c0-.113.09-.158.314-.158.653 0 1.888.045 2 .045s1.372-.045 1.977-.045c.227 0 .316.045.316.158a.191.191 0 0 1-.157.158 2.2 2.2 0 0 0-.5.045c-.541.113-.653.383-.7 1.062-.022.611-.022 1.152-.022 4.136z" class="cls-1" transform="translate(-421.096 -252.747)"/>
        <path id="Caminho_142" d="M574.792 286.645c0 2.817.048 3.978.406 4.319.314.316 1.078.451 2.63.451 1.031 0 1.907-.023 2.381-.586a2.375 2.375 0 0 0 .471-1.087c.022-.135.09-.248.2-.248s.134.09.134.282a11.9 11.9 0 0 1-.294 1.921c-.134.453-.2.521-1.258.521-1.4 0-2.521-.023-3.437-.068s-1.574-.045-2.157-.045c-.092 0-.429 0-.809.022s-.84.045-1.146.045c-.2 0-.316-.045-.316-.158a.152.152 0 0 1 .044-.113.151.151 0 0 1 .113-.044 2.814 2.814 0 0 0 .608-.093c.384-.09.429-.451.518-1.017a39.515 39.515 0 0 0 .112-4.158v-3.381c0-2.983 0-3.524-.045-4.136-.045-.656-.157-.972-.81-1.062a6.37 6.37 0 0 0-.675-.045.191.191 0 0 1-.157-.158c0-.113.09-.158.314-.158.9 0 2.134.045 2.241.045s1.572-.045 2.179-.045c.2 0 .314.045.314.158 0 .068-.09.135-.157.135-.134 0-.429.023-.653.045-.583.113-.7.406-.742 1.085-.022.611-.022 1.152-.022 4.136z" class="cls-1" transform="translate(-440.071 -252.718)"/>
        <path id="Caminho_143" d="M625.57 286.614c0 1.854.022 3.381.112 4.158.067.563.112.927.72 1.017a7.791 7.791 0 0 0 .877.093.159.159 0 0 1 .125.038.162.162 0 0 1 .054.119c0 .09-.112.158-.336.158-1.078 0-2.339-.068-2.451-.068s-1.37.068-1.961.068c-.224 0-.314-.045-.314-.158a.152.152 0 0 1 .044-.113.151.151 0 0 1 .113-.044 2.663 2.663 0 0 0 .585-.093c.4-.09.471-.473.538-1.039.09-.789.09-2.237.09-4.091v-1.921c0-.09-.045-.113-.112-.113h-8.241c-.067 0-.112.023-.112.113v1.921c0 1.854 0 3.324.09 4.113.067.563.134.927.72 1.017a8.052 8.052 0 0 0 .9.093.151.151 0 0 1 .113.044.153.153 0 0 1 .044.113c0 .09-.09.158-.317.158-1.1 0-2.359-.068-2.448-.068s-1.37.068-1.978.068c-.2 0-.314-.045-.314-.158a.153.153 0 0 1 .044-.113.151.151 0 0 1 .113-.044 2.814 2.814 0 0 0 .6-.093c.384-.09.429-.451.518-1.017a39.475 39.475 0 0 0 .112-4.158v-3.381c0-2.983 0-3.524-.045-4.136-.045-.656-.157-.972-.809-1.062a6.3 6.3 0 0 0-.672-.045.191.191 0 0 1-.157-.158c0-.113.09-.158.314-.158.9 0 2.157.045 2.269.045s1.347-.045 1.961-.045c.224 0 .314.045.314.158a.191.191 0 0 1-.157.158 2.187 2.187 0 0 0-.493.045c-.541.113-.653.383-.7 1.062-.022.611-.022 1.2-.022 4.181v.4c0 .116.045.116.112.116h8.246c.067 0 .112 0 .112-.116v-.406c0-2.983-.022-3.569-.045-4.181-.045-.656-.135-.972-.787-1.062a6.316 6.316 0 0 0-.672-.045.169.169 0 0 1-.157-.158c0-.113.09-.158.314-.158.877 0 2.157.045 2.241.045s1.373-.045 1.961-.045c.224 0 .339.045.339.158a.2.2 0 0 1-.182.158 2.3 2.3 0 0 0-.493.045c-.518.113-.63.383-.675 1.062-.045.611-.045 1.152-.045 4.136z" class="cls-1" transform="translate(-469.294 -252.732)"/>
        <path id="Caminho_144" d="M675.947 277.1c.246-.634.336-.747.473-.747.2 0 .28.282.471.7.359.814 3.529 8.747 4.742 11.66.717 1.719 1.258 1.972 1.681 2.1a2.757 2.757 0 0 0 .787.113c.112 0 .246.045.246.158s-.224.158-.448.158c-.28 0-1.753 0-3.123-.045-.381-.023-.7-.023-.7-.135s.045-.09.135-.135a.364.364 0 0 0 .182-.521L678.619 286c-.045-.09-.067-.113-.179-.113h-4.56a.207.207 0 0 0-.2.158l-1.121 3.073a4.009 4.009 0 0 0-.28 1.288c0 .383.339.521.675.521h.162c.157 0 .2.068.2.158s-.112.158-.28.158c-.471 0-1.549-.068-1.773-.068s-1.193.068-2 .068c-.247 0-.381-.045-.381-.158a.174.174 0 0 1 .179-.158 4.858 4.858 0 0 0 .585-.048c.9-.113 1.28-.789 1.664-1.761zm2.2 8c.09 0 .09-.045.067-.135l-1.961-5.268q-.168-.44-.336 0l-1.843 5.268q-.034.135.067.135z" class="cls-1" transform="translate(-510.371 -251.786)"/>
        <path id="Caminho_147" d="M376.493 214.017a7.7 7.7 0 0 1-3.143.6c-2.26 0-5.146-1.662-7.583-4.034a10.835 10.835 0 0 0 8.176-9.987 9.883 9.883 0 0 0-10.229-9.663 10.818 10.818 0 0 0-10.764 10.285 9.867 9.867 0 0 0 10.022 9.691 3.341 3.341 0 0 1 2.053.608c.776.831 5.72 5.823 11.5 2.862.156-.095.035-.393-.032-.362zm-12.638-3.795c-4.2 0-8.532-3.409-8.532-9.987 0-5.426 3.272-8.626 7.7-8.626 4.2 0 8.532 3.381 8.532 9.99.008 5.423-3.291 8.623-7.692 8.623z" class="cls-1" transform="translate(-282.775 -190.753)"/>
        <path id="Caminho_148" d="M394.59 268.716a7.239 7.239 0 0 0 1.162.087 8.4 8.4 0 0 0 4.955-1.535c-6.1 3.116-11.075-1.769-11.851-2.6-.594-.634-2.387-.608-2.387-.608a18.637 18.637 0 0 0 6.412 4.212 17.152 17.152 0 0 0 1.709.444z" class="cls-1" transform="translate(-306.915 -243.057)"/>
        <path id="Linha_20" fill="none" stroke="#b28b72" stroke-miterlimit="10" stroke-width="0.5px" d="M0 0L173.663 0" transform="translate(.064 45.538)"/>
        <path id="Caminho_149" d="M105.9 377.637a3.125 3.125 0 0 1-2.521-1.068 3.373 3.373 0 0 1 0-4.285 3.236 3.236 0 0 1 2.6-1.085 3.391 3.391 0 0 1 2.409.828 2.922 2.922 0 0 1 .891 2.254 3.255 3.255 0 0 1-.954 2.431 3.217 3.217 0 0 1-2.427.935zm.345-.409a1.656 1.656 0 0 0 1.16-.437 2.87 2.87 0 0 0 .734-2.217 3.323 3.323 0 0 0-.695-2.186 2.121 2.121 0 0 0-1.7-.794 1.829 1.829 0 0 0-1.356.516 2.816 2.816 0 0 0-.653 2.054 3.377 3.377 0 0 0 .669 2.169 2.211 2.211 0 0 0 1.838.9z" class="cls-1" transform="translate(-102.416 -319.672)"/>
        <path id="Caminho_150" d="M142.179 377.623a4.115 4.115 0 0 1-2.8-.89 3.059 3.059 0 0 1-1.017-2.426 2.915 2.915 0 0 1 .955-2.254 3.693 3.693 0 0 1 2.591-.873 8.8 8.8 0 0 1 1.188.082c.19.039.465.084.818.141.084 0 .123.037.123.1a1.057 1.057 0 0 1-.02.141c-.014.1-.022.2-.031.313 0 .239-.017.535-.031.887 0 .124-.042.189-.1.189s-.081-.062-.081-.18a1.108 1.108 0 0 0-.319-.758 1.53 1.53 0 0 0-.644-.361 3.328 3.328 0 0 0-1.011-.146 2.188 2.188 0 0 0-1.535.507 2.755 2.755 0 0 0-.753 2.127 2.9 2.9 0 0 0 .874 2.195 2.394 2.394 0 0 0 1.7.73 3.73 3.73 0 0 0 .807-.065 1.224 1.224 0 0 0 .686-.394 1.089 1.089 0 0 0 .28-.541c.022-.11.059-.166.106-.166s.073.042.073.124a4.345 4.345 0 0 1-.056.476 6.15 6.15 0 0 1-.118.608.357.357 0 0 1-.218.245 4.158 4.158 0 0 1-1.467.189z" class="cls-1" transform="translate(-128.152 -319.658)"/>
        <path id="Caminho_151" d="M162.261 375.233h-1.821c-.034 0-.059.02-.076.065l-.44 1.175a1.6 1.6 0 0 0-.123.5q0 .254.328.254h.123c.081 0 .12.023.12.065s-.045.084-.137.084h-.866c-.473.017-.8.025-.964.025-.1 0-.157-.028-.157-.084s.034-.065.1-.065a1.845 1.845 0 0 0 .255-.017.641.641 0 0 0 .423-.228 2.042 2.042 0 0 0 .28-.51l2.048-5.158c.087-.22.165-.33.23-.33s.129.09.2.265q.751 1.907 2.025 5.051c.227.541.468.845.717.893a1.547 1.547 0 0 0 .345.034c.07 0 .106.023.106.065s-.028.056-.081.068a1.724 1.724 0 0 1-.294.017c-.675 0-1.19 0-1.543-.017-.165 0-.247-.028-.247-.068s.039-.068.115-.073.112-.09.073-.189l-.653-1.741a.084.084 0 0 0-.09-.082zm-1.658-.411h1.5q.059 0 .042-.051l-.734-2.028c0-.048-.025-.073-.042-.073s-.039.025-.048.073l-.753 2.023c-.008.048 0 .068.036.068z" class="cls-1" transform="translate(-142.472 -319.536)"/>
        <path id="Caminho_152" d="M181.964 377.433l-2.056-5.02a1.327 1.327 0 0 0-.28-.451.838.838 0 0 0-.35-.172 1.23 1.23 0 0 0-.319-.034c-.064 0-.1-.025-.1-.073s.073-.073.213-.073h2.188c.151 0 .188.023.188.073s-.039.073-.12.073a.622.622 0 0 0-.319.056.2.2 0 0 0-.081.175 2.578 2.578 0 0 0 .188.631l1.4 3.73h.034q.7-1.775 1.608-4.091a1.014 1.014 0 0 0 .076-.3.155.155 0 0 0-.115-.161 1.06 1.06 0 0 0-.319-.037c-.092 0-.137-.022-.137-.065s.076-.082.227-.082h1.625c.092 0 .174.023.174.073s-.045.073-.132.073a.719.719 0 0 0-.4.1 1.836 1.836 0 0 0-.457.738c-.174.406-.5 1.149-.972 2.226l-1.087 2.507c-.12.282-.193.428-.221.485a.225.225 0 0 1-.154.121c-.053 0-.1-.034-.14-.107s-.076-.192-.162-.395z" class="cls-1" transform="translate(-157.309 -319.967)"/>
        <path id="Caminho_153" d="M203.778 375.233h-1.821c-.034 0-.056.02-.073.065l-.443 1.175a1.583 1.583 0 0 0-.12.5c0 .169.106.254.325.254h.123c.081 0 .123.023.123.065s-.048.084-.14.084h-.866c-.473.017-.8.025-.964.025-.1 0-.154-.028-.154-.084s.031-.065.1-.065a1.824 1.824 0 0 0 .252-.017.646.646 0 0 0 .426-.228 1.978 1.978 0 0 0 .28-.51l2.048-5.158c.09-.22.165-.33.23-.33s.129.09.2.265q.753 1.907 2.025 5.051c.23.541.468.845.72.893a1.518 1.518 0 0 0 .342.034c.07 0 .106.023.106.065s-.028.056-.081.068a1.724 1.724 0 0 1-.294.017c-.675 0-1.19 0-1.543-.017-.165 0-.247-.028-.247-.068s.039-.068.115-.073.112-.09.073-.189l-.653-1.741a.082.082 0 0 0-.028-.062.081.081 0 0 0-.061-.019zm-1.658-.411h1.5c.036 0 .05-.017.039-.051l-.734-2.028c0-.048-.025-.073-.042-.073s-.036.025-.048.073l-.751 2.023c-.014.048 0 .068.031.068z" class="cls-1" transform="translate(-172.362 -319.536)"/>
        <path id="Caminho_154" d="M225.83 373.926v1.445c0 .62 0 1.025.025 1.223.022.3.07.479.148.544a1.688 1.688 0 0 0 .986.18c.521 0 .815-.076.955-.231a.847.847 0 0 0 .213-.493c0-.082.042-.121.09-.121s.067.045.067.138a3.62 3.62 0 0 1-.123.947.258.258 0 0 1-.2.2 1.671 1.671 0 0 1-.319.017c-.434 0-.894 0-1.378-.023s-.818-.025-1-.025h-1.022c-.112 0-.165-.028-.165-.085s.062-.062.179-.073l.246-.025c.126-.025.2-.178.235-.451q.042-.321.042-1.749V373.9q0-1.47-.017-1.741a.489.489 0 0 0-.179-.411.888.888 0 0 0-.44-.082c-.092 0-.14-.025-.14-.073s.059-.073.179-.073h2.23c.115 0 .171.023.171.073s-.048.073-.146.073a1.789 1.789 0 0 0-.319.025c-.185.031-.28.189-.3.468q-.018.296-.018 1.767z" class="cls-1" transform="translate(-189.894 -319.902)"/>
        <path id="Caminho_155" d="M244.548 377.625a3.125 3.125 0 0 1-2.521-1.068 3.373 3.373 0 0 1 0-4.285 3.236 3.236 0 0 1 2.6-1.085 3.4 3.4 0 0 1 2.409.828 2.922 2.922 0 0 1 .891 2.254 3.261 3.261 0 0 1-.961 2.423 3.222 3.222 0 0 1-2.418.933zm.342-.409a1.655 1.655 0 0 0 1.16-.437 2.87 2.87 0 0 0 .737-2.217 3.324 3.324 0 0 0-.695-2.186 2.129 2.129 0 0 0-1.7-.794 1.835 1.835 0 0 0-1.356.516 2.836 2.836 0 0 0-.653 2.054 3.394 3.394 0 0 0 .669 2.169 2.211 2.211 0 0 0 1.837.895z" class="cls-1" transform="translate(-202.299 -319.66)"/>
        <path id="Caminho_156" d="M276.6 376.537l.807-5.353c.022-.141.07-.214.14-.214s.14.087.221.256l2.241 4.631 2.221-4.691c.059-.13.118-.2.179-.2s.118.087.146.256l.742 5.071a2.389 2.389 0 0 0 .14.592.421.421 0 0 0 .261.239 1.79 1.79 0 0 0 .507.082c.087 0 .132.02.132.056s-.073.093-.213.093q-1.036 0-1.658-.051c-.157 0-.235-.042-.235-.09s.028-.068.084-.09.073-.141.045-.352l-.49-3.614h-.031l-1.793 3.733c-.146.307-.246.462-.3.462s-.143-.138-.28-.414q-.773-1.487-.938-1.868l-.84-1.825h-.034l-.423 3.268a2.962 2.962 0 0 0-.025.386q0 .206.244.262a1.512 1.512 0 0 0 .345.042c.081 0 .12.02.12.056s-.064.093-.2.093h-1.664c-.1 0-.148-.031-.148-.093s.045-.056.132-.056a1.113 1.113 0 0 0 .244-.025c.148-.025.257-.242.321-.642z" class="cls-1" transform="translate(-227.256 -319.507)"/>
        <path id="Caminho_157" d="M308.02 375.2h-1.82c-.034 0-.059.02-.076.065l-.428 1.186a1.6 1.6 0 0 0-.123.5q0 .254.328.254h.123c.081 0 .12.023.12.065s-.045.084-.137.084h-.865c-.473.017-.8.025-.964.025-.1 0-.157-.028-.157-.084s.034-.065.1-.065a1.854 1.854 0 0 0 .255-.017.64.64 0 0 0 .423-.228 2.039 2.039 0 0 0 .28-.51l2.02-5.184c.087-.22.165-.33.23-.33s.129.09.2.265q.753 1.907 2.025 5.051c.227.541.468.845.717.893a1.545 1.545 0 0 0 .344.034c.07 0 .106.023.106.065s-.028.056-.081.068a1.721 1.721 0 0 1-.294.017c-.675 0-1.19 0-1.543-.017-.165 0-.246-.028-.246-.068s.039-.068.115-.073.112-.09.073-.189l-.653-1.741a.084.084 0 0 0-.072-.066zm-1.658-.411h1.5q.059 0 .042-.051l-.734-2.028c0-.048-.025-.073-.042-.073s-.039.025-.048.073l-.754 2.023c-.011.048 0 .068.034.068z" class="cls-1" transform="translate(-247.512 -319.5)"/>
        <path id="Caminho_158" d="M329.15 375.436v-1.446q0-1.471-.017-1.741c-.017-.262-.109-.417-.28-.459a1.2 1.2 0 0 0-.28-.034c-.1 0-.143-.028-.143-.082s.067-.065.2-.065h2.059c.115 0 .171.02.171.065s-.039.082-.118.082a1.36 1.36 0 0 0-.252.025c-.185.031-.28.189-.3.468q-.017.282-.017 1.741v1.445q0 1.471.034 1.8c.02.239.129.375.322.4a2.954 2.954 0 0 0 .415.034c.084 0 .129.023.129.065s-.053.085-.157.085h-2.294c-.112 0-.162-.028-.162-.085s.059-.062.179-.073.165-.02.247-.025q.193-.037.235-.406c.029-.242.029-.842.029-1.794z" class="cls-1" transform="translate(-265.094 -319.967)"/>
        <path id="Caminho_159" d="M343.373 377.61a2.93 2.93 0 0 1-1.193-.214.282.282 0 0 1-.154-.282c0-.3.014-.654.039-1.073 0-.144.045-.214.1-.214s.081.045.081.138a1.467 1.467 0 0 0 .076.42 1.093 1.093 0 0 0 1.168.828 1.136 1.136 0 0 0 .824-.3.876.876 0 0 0 .28-.634 1.733 1.733 0 0 0-.8-1.313l-.375-.293a2.6 2.6 0 0 1-1.207-1.947 1.383 1.383 0 0 1 .524-1.127 2.051 2.051 0 0 1 1.361-.434 4.44 4.44 0 0 1 1.087.138c.076.023.115.056.115.1 0 0 0 .087-.017.282s-.017.437-.017.693c0 .166-.028.248-.09.248s-.081-.051-.081-.149a.867.867 0 0 0-.213-.541 1.073 1.073 0 0 0-.888-.4 1.033 1.033 0 0 0-.711.234.783.783 0 0 0-.261.611.923.923 0 0 0 .182.547 3.326 3.326 0 0 0 .683.637l.227.172a4.266 4.266 0 0 1 1.036 1.031 1.935 1.935 0 0 1 .3 1.065 1.608 1.608 0 0 1-.767 1.428 2.338 2.338 0 0 1-1.309.349z" class="cls-1" transform="translate(-274.888 -319.645)"/>
        <path id="Caminho_160" d="M366.576 377.433l-2.059-5.02a1.328 1.328 0 0 0-.28-.451.838.838 0 0 0-.35-.172 1.229 1.229 0 0 0-.319-.034c-.064 0-.1-.025-.1-.073s.07-.073.213-.073h2.188c.151 0 .188.023.188.073s-.039.073-.121.073a.622.622 0 0 0-.319.056.2.2 0 0 0-.081.175 2.576 2.576 0 0 0 .188.631l1.4 3.73h.034q.7-1.775 1.608-4.091a.985.985 0 0 0 .073-.3.152.152 0 0 0-.112-.161 1.085 1.085 0 0 0-.319-.037c-.092 0-.14-.022-.14-.065s.078-.082.23-.082h1.625c.092 0 .171.023.171.073s-.042.073-.129.073a.714.714 0 0 0-.4.1 1.835 1.835 0 0 0-.457.738c-.176.406-.5 1.149-.972 2.226l-1.076 2.507c-.12.282-.193.428-.221.485a.225.225 0 0 1-.154.121c-.053 0-.1-.034-.14-.107s-.082-.192-.169-.395z" class="cls-1" transform="translate(-290.34 -319.967)"/>
        <path id="Caminho_161" d="M388.883 375.227v-1.445q0-1.471-.017-1.741a.442.442 0 0 0-.35-.468 1.545 1.545 0 0 0-.319-.025c-.092 0-.137-.025-.137-.073s.059-.073.179-.073h3.218a2.025 2.025 0 0 0 .35-.048l.132-.034c.031 0 .048.025.048.073a.636.636 0 0 1-.025.149 2.253 2.253 0 0 0-.036.386c-.008.149-.022.33-.045.541a.081.081 0 0 1-.081.09c-.042 0-.062-.028-.07-.09s-.017-.115-.022-.172a.571.571 0 0 0-.031-.147c-.067-.161-.249-.259-.56-.3-.188-.023-.574-.034-1.165-.034-.039 0-.056.028-.056.082v2.079c0 .059.017.09.056.09.748 0 1.188 0 1.314-.017a1.431 1.431 0 0 0 .213-.025.333.333 0 0 0 .179-.1c.064-.07.109-.107.132-.107a.063.063 0 0 1 .056.068.6.6 0 0 1-.022.163 3.97 3.97 0 0 0-.042.437q-.034.465-.034.549c0 .1-.025.155-.073.155s-.073-.028-.073-.085a1.942 1.942 0 0 0-.034-.282c-.045-.186-.2-.282-.459-.321-.154-.014-.541-.023-1.165-.023-.034 0-.048.025-.048.082v1.921a.687.687 0 0 0 .19.563 1.573 1.573 0 0 0 .793.127 2.085 2.085 0 0 0 .77-.1.753.753 0 0 0 .37-.609c0-.082.045-.124.09-.124s.064.051.064.149a3.676 3.676 0 0 1-.106.91c-.028.1-.064.161-.115.183a1.066 1.066 0 0 1-.325.031c-.473 0-.947 0-1.415-.022s-.751-.025-.84-.025h-1.022c-.115 0-.162-.028-.162-.084s.059-.062.179-.073l.238.011c.126-.025.2-.177.238-.451q.04-.312.04-1.741z" class="cls-1" transform="translate(-308.052 -319.758)"/>
        <path id="Caminho_162" d="M407.306 375.421v-1.445q0-1.471-.017-1.741a.448.448 0 0 0-.353-.468 1.535 1.535 0 0 0-.316-.025c-.092 0-.14-.025-.14-.073s.062-.073.179-.073h2.263a2.637 2.637 0 0 1 1.5.352 1.191 1.191 0 0 1 .358.42 1.334 1.334 0 0 1 .2.7 2.433 2.433 0 0 1-1.076 1.84c.591.758.919 1.166.978 1.234q.473.6.793.927a1.755 1.755 0 0 0 .916.563l.188.017c.092 0 .137.037.137.073s-.05.084-.154.084h-.776a1.881 1.881 0 0 1-.874-.158 4.307 4.307 0 0 1-1.12-1.206q-.353-.5-.81-1.127a.187.187 0 0 0-.146-.056h-.7a.056.056 0 0 0-.064.065v.116a16.973 16.973 0 0 0 .039 1.744c.039.239.14.428.319.448a3.036 3.036 0 0 0 .4.034c.064 0 .1.023.1.065s-.056.084-.165.084h-2.193c-.123 0-.162-.028-.162-.084s.059-.062.179-.073l.244-.025c.126-.025.2-.177.238-.451q.035-.333.035-1.761zm.964-3.293v2.5c0 .082.022.132.073.149a1.916 1.916 0 0 0 .619.082.965.965 0 0 0 .58-.141 1.422 1.422 0 0 0 .482-1.231 1.552 1.552 0 0 0-.44-1.192 1.442 1.442 0 0 0-1.274-.262.1.1 0 0 0-.04.095z" class="cls-1" transform="translate(-321.324 -319.952)"/>
        <path id="Caminho_163" d="M430.623 377.6a2.928 2.928 0 0 1-1.193-.214.282.282 0 0 1-.154-.282c0-.3.014-.654.039-1.073 0-.144.045-.214.1-.214s.084.045.084.138a1.453 1.453 0 0 0 .073.42 1.093 1.093 0 0 0 1.168.828 1.136 1.136 0 0 0 .823-.3.875.875 0 0 0 .28-.634 1.733 1.733 0 0 0-.8-1.313l-.375-.3a2.6 2.6 0 0 1-1.21-1.947 1.383 1.383 0 0 1 .524-1.127 2.051 2.051 0 0 1 1.361-.434 4.443 4.443 0 0 1 1.087.138c.076.023.115.056.115.1 0 0 0 .087-.017.282s-.017.437-.017.693c0 .166-.028.248-.09.248s-.081-.051-.081-.149a.868.868 0 0 0-.213-.541 1.065 1.065 0 0 0-.888-.4 1.033 1.033 0 0 0-.712.234.783.783 0 0 0-.26.611.939.939 0 0 0 .182.547 3.32 3.32 0 0 0 .684.637l.227.172a4.267 4.267 0 0 1 1.036 1.031 1.935 1.935 0 0 1 .3 1.065 1.608 1.608 0 0 1-.768 1.428 2.336 2.336 0 0 1-1.305.356z" class="cls-1" transform="translate(-337.742 -319.638)"/>
        <path id="Caminho_164" d="M445.791 370.794h-1.82c-.034 0-.059.02-.076.065l-.44 1.175a1.606 1.606 0 0 0-.123.5q0 .254.328.254h.123c.081 0 .12.023.12.065s-.045.085-.137.085h-.866c-.473.017-.8.025-.964.025-.1 0-.157-.028-.157-.085s.034-.065.1-.065a1.888 1.888 0 0 0 .255-.017.64.64 0 0 0 .423-.228 1.976 1.976 0 0 0 .28-.51l2.05-5.158c.087-.22.165-.33.23-.33s.126.09.2.265q.753 1.907 2.025 5.051c.227.541.468.845.717.893a1.552 1.552 0 0 0 .344.034c.07 0 .107.022.107.065s-.028.056-.084.068a1.675 1.675 0 0 1-.294.017c-.675 0-1.188 0-1.543-.017q-.244 0-.244-.068c0-.042.039-.068.115-.073s.112-.09.073-.189l-.653-1.741a.084.084 0 0 0-.029-.061.083.083 0 0 0-.06-.02zm-1.658-.411h1.5c.039 0 .053-.017.042-.051l-.734-2.028c0-.048-.025-.073-.042-.073s-.039.025-.048.073l-.753 2.023c-.017.048 0 .068.034.068zm2.14-5.448l.056.1s.062.13.179.386c.022.045.025.076 0 .1s-.022.025-.048.025h-.28a3.93 3.93 0 0 0-1.4.484.748.748 0 0 1-.14.065.042.042 0 0 1-.048-.048c0-.023.025-.059.073-.107a8.972 8.972 0 0 1 1.317-1.037.384.384 0 0 1 .162-.073.209.209 0 0 1 .129.115z" class="cls-1" transform="translate(-346.754 -315.097)"/>
        <path id="Caminho_165" d="M466.771 375.127v-3.367l-1.216.034c-.431 0-.695.09-.793.237a.881.881 0 0 0-.137.282c-.017.065-.048.1-.09.1s-.076-.042-.076-.133a5.452 5.452 0 0 1 .174-.944c.025-.1.059-.155.1-.155a.511.511 0 0 1 .129.045.752.752 0 0 0 .221.054c.294.028.56.039.815.039h3.235a3.7 3.7 0 0 0 .56-.037l.221-.037c.042 0 .064.056.064.172v.456c0 .251-.017.417-.022.5s-.025.121-.064.121-.078-.054-.09-.163v-.09c-.028-.282-.347-.445-.964-.459l-1.028-.025v3.367c0 .932.014 1.516.039 1.758s.14.417.319.442a2.979 2.979 0 0 0 .417.034c.087 0 .129.022.129.065s-.05.085-.154.085h-2.3c-.112 0-.163-.028-.163-.085s.059-.062.179-.073l.244-.025c.126-.025.2-.177.238-.451s.013-.82.013-1.747z" class="cls-1" transform="translate(-363.091 -319.658)"/>
        <path id="Caminho_166" d="M487.66 375.436v-1.446q0-1.471-.017-1.741c-.017-.262-.109-.417-.28-.459a1.2 1.2 0 0 0-.28-.034c-.1 0-.143-.028-.143-.082s.065-.065.2-.065h2.059c.115 0 .171.02.171.065s-.039.082-.118.082a1.415 1.415 0 0 0-.255.025c-.182.031-.28.189-.3.468q-.017.282-.017 1.741v1.445q0 1.471.034 1.8c.02.239.129.375.322.4a2.94 2.94 0 0 0 .412.034c.087 0 .132.023.132.065s-.053.085-.157.085h-2.294c-.112 0-.163-.028-.163-.085s.059-.062.179-.073l.244-.025c.132-.025.21-.161.238-.406s.033-.842.033-1.794z" class="cls-1" transform="translate(-379.282 -319.967)"/>
        <path id="Caminho_167" d="M501.723 373.926v1.445c0 .62 0 1.025.022 1.223a.9.9 0 0 0 .148.544 1.693 1.693 0 0 0 .989.18c.524 0 .812-.076.955-.231a.847.847 0 0 0 .21-.493c0-.082.042-.121.092-.121s.064.045.064.138a3.621 3.621 0 0 1-.123.947.259.259 0 0 1-.2.2 1.617 1.617 0 0 1-.317.017c-.437 0-.9 0-1.381-.023s-.818-.025-1-.025h-1.022c-.115 0-.165-.028-.165-.085s.062-.062.182-.073l.244-.025c.126-.025.2-.178.238-.451q.036-.321.039-1.749V373.9q0-1.47-.017-1.741a.489.489 0 0 0-.179-.411.878.878 0 0 0-.44-.082c-.092 0-.14-.025-.14-.073s.062-.073.179-.073h2.23c.115 0 .174.023.174.073s-.05.073-.148.073a1.789 1.789 0 0 0-.319.025c-.185.031-.28.189-.3.468q-.013.296-.015 1.767z" class="cls-1" transform="translate(-388.642 -319.902)"/>
        <path id="Caminho_168" d="M526.979 375.429v-3.186a.447.447 0 0 0-.353-.468 1.541 1.541 0 0 0-.317-.025c-.092 0-.14-.025-.14-.073s.059-.073.179-.073h2.434a9.338 9.338 0 0 1 1.681.113 2.961 2.961 0 0 1 1.594.823 2.906 2.906 0 0 1 .793 2.085 3.148 3.148 0 0 1-.891 2.293 3.675 3.675 0 0 1-2.737.969c-.213 0-.524-.017-.938-.051s-.681-.048-.8-.048h-1.02c-.112 0-.163-.028-.163-.085s.059-.062.179-.073l.244-.025c.126-.025.2-.177.238-.451.001-.19.017-.773.017-1.725zm1.021-1.578v1.037c0 .865 0 1.409.017 1.659a1.733 1.733 0 0 0 .09.623c.151.22.507.33 1.07.33a2.79 2.79 0 0 0 1.882-.592 2.6 2.6 0 0 0 .681-2.045 2.716 2.716 0 0 0-.784-2.054 3.216 3.216 0 0 0-2.314-.814 1.611 1.611 0 0 0-.518.048.175.175 0 0 0-.109.172c-.015.242-.015.785-.015 1.636z" class="cls-1" transform="translate(-407.548 -319.96)"/>
        <path id="Caminho_169" d="M556.468 377.637a3.125 3.125 0 0 1-2.521-1.068 3.373 3.373 0 0 1 0-4.285 3.236 3.236 0 0 1 2.6-1.085 3.42 3.42 0 0 1 2.409.828 2.922 2.922 0 0 1 .891 2.254 3.261 3.261 0 0 1-.956 2.429 3.222 3.222 0 0 1-2.425.937zm.344-.409a1.656 1.656 0 0 0 1.16-.437 2.881 2.881 0 0 0 .734-2.217 3.323 3.323 0 0 0-.695-2.186 2.121 2.121 0 0 0-1.7-.794 1.829 1.829 0 0 0-1.356.516 2.817 2.817 0 0 0-.653 2.054 3.377 3.377 0 0 0 .669 2.169 2.206 2.206 0 0 0 1.841.896z" class="cls-1" transform="translate(-427.005 -319.672)"/>
        <path id="Caminho_170" d="M588.481 376.537l.81-5.353c.022-.141.067-.214.137-.214s.14.087.221.256l2.241 4.631 2.221-4.691c.059-.13.118-.2.179-.2s.12.087.145.256l.745 5.071a2.294 2.294 0 0 0 .137.592.426.426 0 0 0 .263.239 1.775 1.775 0 0 0 .5.082c.087 0 .132.02.132.056s-.07.093-.213.093q-1.039 0-1.658-.051c-.157 0-.235-.042-.235-.09s.028-.068.084-.09.073-.141.045-.352l-.49-3.614h-.034l-1.79 3.733c-.146.307-.246.462-.3.462s-.146-.138-.28-.414q-.773-1.487-.938-1.868l-.84-1.825h-.053l-.423 3.268a2.935 2.935 0 0 0-.025.386c0 .138.081.225.246.262a1.468 1.468 0 0 0 .342.042c.081 0 .123.02.123.056s-.067.093-.2.093h-1.667c-.1 0-.146-.031-.146-.093s.042-.056.129-.056a1.155 1.155 0 0 0 .246-.025c.176-.025.288-.242.346-.642z" class="cls-1" transform="translate(-451.927 -319.507)"/>
        <path id="Caminho_171" d="M619.183 375.191v-1.2q0-1.471-.017-1.741a.447.447 0 0 0-.35-.468 1.546 1.546 0 0 0-.319-.025c-.093 0-.137-.025-.137-.073s.059-.073.179-.073h2.2c.1 0 .179.023.179.073s-.045.073-.132.073a1.341 1.341 0 0 0-.235.025c-.185.034-.28.189-.3.468q-.017.282-.017 1.744v1.152a2.55 2.55 0 0 0 .636 2.023 1.555 1.555 0 0 0 1.023.338 1.522 1.522 0 0 0 1.12-.445 1.622 1.622 0 0 0 .409-.87 7.808 7.808 0 0 0 .064-1.169v-1.028q0-1.471-.017-1.744a.442.442 0 0 0-.35-.468 1.4 1.4 0 0 0-.294-.025c-.092 0-.137-.025-.137-.073s.056-.073.171-.073c.238 0 .56 0 .938.023h.944c.137 0 .174.022.174.073s-.05.073-.149.073a1.342 1.342 0 0 0-.235.025c-.188.031-.28.189-.3.468q-.017.282-.017 1.741v.879a5.722 5.722 0 0 1-.132 1.355 2.1 2.1 0 0 1-.644 1.127 2.513 2.513 0 0 1-1.7.592 2.617 2.617 0 0 1-1.815-.564 2.924 2.924 0 0 1-.74-2.213z" class="cls-1" transform="translate(-474.002 -319.967)"/>
        <path id="Caminho_172" d="M645.316 372.886l.09 3.448q.025.82.28.913c.017 0 .123.017.319.039s.244.051.244.082-.062.085-.187.085h-1.883c-.12 0-.179-.028-.179-.085s.07-.062.213-.073l.28-.034a.315.315 0 0 0 .2-.262 5.056 5.056 0 0 0 .048-.755l.073-4.862c0-.186.042-.282.107-.282s.146.084.3.253q.669.724 2.521 2.637l1.8 1.874h.059l-.081-3.688a2.65 2.65 0 0 0-.033-.419.439.439 0 0 0-.244-.319 1.287 1.287 0 0 0-.434-.051c-.087 0-.132-.025-.132-.073s.073-.073.213-.073h1.784c.16 0 .188.023.188.073s-.05.073-.148.073c-.28 0-.437.09-.5.282a2.234 2.234 0 0 0-.048.454l-.09 5.181c0 .169-.042.256-.106.256s-.154-.062-.28-.183q-.784-.778-2.409-2.414-.56-.549-1.249-1.3l-.695-.763z" class="cls-1" transform="translate(-492.46 -319.6)"/>
        <path id="Caminho_173" d="M672.876 375.429v-1.445q0-1.471-.017-1.741a.448.448 0 0 0-.35-.468 1.583 1.583 0 0 0-.319-.025c-.092 0-.14-.025-.14-.073s.062-.073.179-.073h2.434a9.349 9.349 0 0 1 1.68.113 2.953 2.953 0 0 1 1.591.823 2.891 2.891 0 0 1 .793 2.085 3.15 3.15 0 0 1-.891 2.293 3.661 3.661 0 0 1-2.734.969q-.319 0-.941-.051c-.412-.031-.681-.048-.8-.048h-1.022c-.112 0-.162-.028-.162-.085s.059-.062.179-.073.163-.02.247-.025.2-.178.235-.451q.038-.296.038-1.725zm1.02-1.578v1.037c0 .865 0 1.409.017 1.659a1.74 1.74 0 0 0 .089.623c.151.22.51.33 1.07.33a2.774 2.774 0 0 0 1.882-.592 2.6 2.6 0 0 0 .681-2.045 2.725 2.725 0 0 0-.781-2.054 3.224 3.224 0 0 0-2.319-.82 1.634 1.634 0 0 0-.521.048.175.175 0 0 0-.109.172c-.014.248-.017.794-.017 1.642z" class="cls-1" transform="translate(-512.653 -319.96)"/>
        <path id="Caminho_174" d="M702.367 377.625a3.124 3.124 0 0 1-2.521-1.068 3.373 3.373 0 0 1 0-4.285 3.226 3.226 0 0 1 2.6-1.085 3.4 3.4 0 0 1 2.409.828 2.928 2.928 0 0 1 .888 2.254 3.255 3.255 0 0 1-.954 2.431 3.217 3.217 0 0 1-2.427.935zm.345-.409a1.655 1.655 0 0 0 1.16-.437 2.87 2.87 0 0 0 .734-2.217 3.306 3.306 0 0 0-.695-2.186 2.121 2.121 0 0 0-1.7-.794 1.834 1.834 0 0 0-1.356.516 2.837 2.837 0 0 0-.653 2.054 3.394 3.394 0 0 0 .67 2.169 2.211 2.211 0 0 0 1.84.895z" class="cls-1" transform="translate(-532.111 -319.66)"/>
    </g>
</svg>
