<svg xmlns="http://www.w3.org/2000/svg" width="24" height="24.065" viewBox="0 0 24 24.065">
    <defs>
        <style>
            .cls-1{fill:#b28b72}
        </style>
    </defs>
    <g id="instagram">
        <path id="Caminho_249" d="M115.666 96.746c3.205 0 3.583 0 4.852.071a6.57 6.57 0 0 1 2.225.413 3.961 3.961 0 0 1 2.278 2.278 6.57 6.57 0 0 1 .413 2.225c.059 1.269.071 1.647.071 4.852s0 3.583-.071 4.846a6.617 6.617 0 0 1-.413 2.231 3.961 3.961 0 0 1-2.278 2.278 6.57 6.57 0 0 1-2.225.413c-1.269.059-1.647.071-4.852.071s-3.583 0-4.846-.071a6.617 6.617 0 0 1-2.231-.413 3.961 3.961 0 0 1-2.278-2.278 6.617 6.617 0 0 1-.413-2.231c-.059-1.263-.071-1.641-.071-4.846s0-3.583.071-4.852a6.57 6.57 0 0 1 .413-2.225 3.961 3.961 0 0 1 2.273-2.278 6.617 6.617 0 0 1 2.231-.413c1.263-.059 1.641-.071 4.846-.071m0-2.166c-3.258 0-3.666 0-4.946.077a8.9 8.9 0 0 0-2.916.555 6.139 6.139 0 0 0-3.506 3.512 8.689 8.689 0 0 0-.561 2.91c-.059 1.281-.071 1.694-.071 4.952s0 3.666.071 4.946a8.73 8.73 0 0 0 .561 2.916 6.109 6.109 0 0 0 3.506 3.506 8.73 8.73 0 0 0 2.916.59c1.281.059 1.688.071 4.946.071s3.671 0 4.946-.071a8.7 8.7 0 0 0 2.916-.59 6.139 6.139 0 0 0 3.512-3.506 8.9 8.9 0 0 0 .555-2.916c.059-1.281.071-1.688.071-4.946s0-3.671-.071-4.952a8.854 8.854 0 0 0-.555-2.91 6.174 6.174 0 0 0-3.542-3.542 8.854 8.854 0 0 0-2.916-.555c-1.275-.059-1.688-.077-4.946-.077" class="cls-1" transform="translate(-103.66 -94.55)"/>
        <path id="Caminho_250" d="M119.67 104.56a6.1 6.1 0 1 0 4.322 1.784 6.1 6.1 0 0 0-4.322-1.784m0 10.059a3.961 3.961 0 1 1 3.968-3.961 3.964 3.964 0 0 1-3.968 3.961" class="cls-1" transform="translate(-107.664 -98.587)"/>
        <path id="Caminho_251" d="M135.378 103.189a1.479 1.479 0 1 1-1.479-1.479 1.479 1.479 0 0 1 1.479 1.479" class="cls-1" transform="translate(-115.051 -96.882)"/>
    </g>
</svg>
