<svg xmlns="http://www.w3.org/2000/svg" width="24" height="24" viewBox="0 0 24 24">
    <defs>
        <style>
            .cls-1{fill:#b28b72}
        </style>
    </defs>
    <g id="youtube">
        <path id="Caminho_253" d="M73.31 116.833l5.012-2.89-5.012-2.883zm0 0" class="cls-1" transform="translate(-63.382 -101.943)"/>
        <path id="Caminho_254" d="M77.85 94.6H57.31a1.736 1.736 0 0 0-1.73 1.736v20.533a1.73 1.73 0 0 0 1.73 1.73h20.54a1.724 1.724 0 0 0 1.73-1.73V96.336a1.73 1.73 0 0 0-1.73-1.736zm-2.767 12.018a19.8 19.8 0 0 1-.29 3.627 1.879 1.879 0 0 1-1.327 1.321 45.8 45.8 0 0 1-5.867.308 44.119 44.119 0 0 1-5.867-.32 1.873 1.873 0 0 1-1.321-1.321 21.25 21.25 0 0 1 0-7.212 1.908 1.908 0 0 1 1.321-1.333 45.8 45.8 0 0 1 5.867-.308 44.027 44.027 0 0 1 5.867.32 1.879 1.879 0 0 1 1.327 1.3 18.891 18.891 0 0 1 .308 3.621zm0 0" class="cls-1" transform="translate(-55.58 -94.6)"/>
    </g>
</svg>
